# xmcd
#
# Track frame offsets: 
#        150
#        22985
#        45653
#        68804
#        93545
#        118155
#        138925
#
# Disc length: 2451 seconds
#
# Revision: 0
# Processed by: cddbd v1.5.2PL0 Copyright (c) Steve Scherf et al.
# Submitted via: ExactAudioCopy v0.95b4
#
DISCID=5a099107
DTITLE=Maze - Golden Time Of Day
DYEAR=1978
DGENRE=R&B
TTITLE0=Travelin' Man
TTITLE1=Song For My Mother
TTITLE2=You're Not The Same
TTITLE3=Workin' Together
TTITLE4=Golden Time Of Day
TTITLE5=I Wish You Well
TTITLE6=I Need You
EXTD=
EXTT0=
EXTT1=
EXTT2=
EXTT3=
EXTT4=
EXTT5=
EXTT6=
PLAYORDER=
